<?xml version="1.0" standalone="no"?><!DOCTYPE svg PUBLIC "-//W3C//DTD SVG 1.1//EN"
  "http://www.w3.org/Graphics/SVG/1.1/DTD/svg11.dtd">
<svg t="1591088776401" class="icon" viewBox="0 0 1024 1024" version="1.1" xmlns="http://www.w3.org/2000/svg" p-id="3447"
     xmlns:xlink="http://www.w3.org/1999/xlink" width="128" height="128">
  <defs>
    <style type="text/css"/>
  </defs>
  <path
    d="M624.128 608.256a31.232 31.232 0 0 1 33.792 31.232 32.768 32.768 0 0 1-33.792 31.232h-80.896v76.288a31.744 31.744 0 1 1-62.976 0v-78.336H399.872a31.232 31.232 0 1 1 0-62.464h80.896V563.2H399.872a31.232 31.232 0 0 1-33.792-31.232 32.768 32.768 0 0 1 33.792-31.232h45.056l-15.872-31.232L409.6 429.056a32.256 32.256 0 0 1 11.264-44.544 34.304 34.304 0 0 1 39.936 15.36l15.872 31.232 15.872 31.232 15.872 33.792 15.872-33.792 15.872-31.232 15.872-31.232a32.256 32.256 0 0 1 42.496-15.872 34.304 34.304 0 0 1 11.264 44.544l-11.264 37.888-15.872 33.792h42.496a31.232 31.232 0 1 1 0 62.464h-79.36v45.056z m212.992-327.168H187.392a31.232 31.232 0 0 0-33.792 31.744V834.56a33.792 33.792 0 0 0 33.792 35.84h649.216a33.792 33.792 0 0 0 33.792-35.84V312.832a31.232 31.232 0 0 0-33.792-31.744zM241.152 216.576h541.696a31.232 31.232 0 0 0 33.792-31.232 32.768 32.768 0 0 0-33.792-31.744H241.152a31.232 31.232 0 0 0 0 62.976z"
    p-id="3448"/>
</svg>
