<?xml version="1.0" standalone="no"?><!DOCTYPE svg PUBLIC "-//W3C//DTD SVG 1.1//EN" "http://www.w3.org/Graphics/SVG/1.1/DTD/svg11.dtd"><svg t="1592216202867" class="icon" viewBox="0 0 1024 1024" version="1.1" xmlns="http://www.w3.org/2000/svg" p-id="28632" xmlns:xlink="http://www.w3.org/1999/xlink" width="200" height="200"><defs><style type="text/css"></style></defs><path d="M857.396825 134.095238C797.257143 239.746032 763.936508 372.215873 763.936508 512s32.507937 272.253968 93.460317 377.904762C959.796825 796.444444 1024 661.536508 1024 512s-64.203175-284.444444-166.603175-377.904762zM166.603175 889.904762C226.742857 784.253968 260.063492 652.596825 260.063492 512s-33.320635-272.253968-93.460317-377.904762C64.203175 227.555556 0 362.463492 0 512s64.203175 284.444444 166.603175 377.904762z" fill="#cdcdcd" p-id="28633"></path><path d="M731.428571 512c0-147.911111 35.75873-288.507937 100.774604-399.847619C744.431746 42.260317 633.092063 0 512 0 390.907937 0 279.568254 42.260317 192.609524 112.152381 257.625397 223.492063 292.571429 364.088889 292.571429 512c0 147.911111-35.75873 288.507937-100.774604 399.847619C279.568254 981.739683 390.907937 1024 512 1024c121.092063 0 232.431746-42.260317 319.390476-112.152381C766.374603 800.507937 731.428571 659.911111 731.428571 512z" fill="#cdcdcd" p-id="28634"></path></svg>