<?xml version="1.0" standalone="no"?><!DOCTYPE svg PUBLIC "-//W3C//DTD SVG 1.1//EN" "http://www.w3.org/Graphics/SVG/1.1/DTD/svg11.dtd"><svg t="1592214235690" class="icon" viewBox="0 0 1024 1024" version="1.1" xmlns="http://www.w3.org/2000/svg" p-id="3950" xmlns:xlink="http://www.w3.org/1999/xlink" width="200" height="200"><defs><style type="text/css"></style></defs><path d="M223.5 290.2h-69.1c-19.9 0-36-16.1-36-36s16.1-36 36-36h69.1c19.9 0 36 16.1 36 36s-16.1 36-36 36z m36 259.2c0-19.9-16.1-36-36-36h-69.1c-19.9 0-36 16.1-36 36s16.1 36 36 36h69.1c19.9 0 36-16.1 36-36z m0 219.2c0-19.9-16.1-36-36-36h-69.1c-19.9 0-36 16.1-36 36s16.1 36 36 36h69.1c19.9 0 36-16.1 36-36z m646.1-514.4c0-19.9-16.1-36-36-36H340.5c-19.9 0-36 16.1-36 36s16.1 36 36 36h529.1c19.8 0 36-16.1 36-36z m0 295.2c0-19.9-16.1-36-36-36H340.5c-19.9 0-36 16.1-36 36s16.1 36 36 36h529.1c19.8 0 36-16.1 36-36z m0 219.2c0-19.9-16.1-36-36-36H340.5c-19.9 0-36 16.1-36 36s16.1 36 36 36h529.1c19.8 0 36-16.1 36-36z" p-id="3951"></path></svg>