<svg t="1590809097767" class="icon" viewBox="0 0 1024 1024" version="1.1" xmlns="http://www.w3.org/2000/svg" p-id="4313"
     width="128" height="128">
  <path
    d="M947.9 836.2l-37.5-310.8c-6.7-55.4-53.8-97.2-109.6-97.2h-48.1c16.7-32.8 27.3-65.6 27.3-96.5C780 184 659.9 63.9 512.2 63.9S244.5 184 244.5 331.7c0 30.9 10.6 63.7 27.3 96.5h-48.1c-22.3 0-43 6.9-60.5 18.4-0.9 0.5-2 0.8-2.9 1.5-26 18.1-43.1 46.2-46.8 77.3L76 836.2c-2.7 22.3 2 44.6 12.6 64.5 2.2 4.3 4.7 8.5 7.5 12.4 0.3 0.5 0.5 1 0.9 1.5 0.4 0.6 1 1 1.5 1.6 1.7 2.2 3.3 4.4 5.1 6.4 20.9 23.6 51 37.1 82.6 37.1h652.2c31.5 0 61.6-13.5 82.6-37.1 20.9-23.6 30.7-55.1 26.9-86.4zM289 652.5H172.9l14.3-118.3c0.4-3.5 1.4-6.7 2.7-9.8 55.4 32.5 90.7 78.3 99.1 128.1zM149.6 845.9v-0.9L164 726h117.1c-19.5 49.9-66.9 93.6-131.5 119.9zM358.2 726h307.6c15.5 63.8 59.9 120.3 125 160.1H233.1c65.2-39.8 109.6-96.2 125.1-160.1z m516.2 119.9c-64.6-26.2-112-70-131.6-119.9H860l14.3 119c0 0.3 0 0.6 0.1 0.9zM735 652.5c8.4-49.8 43.7-95.6 99.2-128.2 1.3 3.1 2.2 6.4 2.7 9.9l14.2 118.3H735z m-74.2 0h-96.1c27-24 89.8-82.4 141.6-150.7h34.8c-46.1 42.1-74.3 94.4-80.3 150.7zM512.3 137.4c107.1 0 194.2 87.1 194.2 194.2 0 70.4-98.4 182.1-193 265.5C450 541.3 401 489.7 368 443.6c-1-1.4-2.3-2.6-3.5-3.9-28.2-39.9-46.4-77.8-46.4-108 0-107.1 87.1-194.3 194.2-194.3z m-49.8 515.1h-99.4c-6-56.3-34.2-108.6-80.3-150.7h36c44.5 58.6 100.4 112.5 143.7 150.7z"
    p-id="4314"></path>
  <path
    d="M512.3 461.4c65.2 0 118.3-53.1 118.3-118.3s-53.1-118.3-118.3-118.3c-65.2 0-118.3 53.1-118.3 118.3s53.1 118.3 118.3 118.3z m0-163c24.7 0 44.7 20.1 44.7 44.7 0 24.7-20.1 44.7-44.7 44.7s-44.7-20.1-44.7-44.7c0-24.7 20-44.7 44.7-44.7z"
    p-id="4315"></path>
</svg>
