<?xml version="1.0" standalone="no"?><!DOCTYPE svg PUBLIC "-//W3C//DTD SVG 1.1//EN" "http://www.w3.org/Graphics/SVG/1.1/DTD/svg11.dtd"><svg t="1592215386701" class="icon" viewBox="0 0 1024 1024" version="1.1" xmlns="http://www.w3.org/2000/svg" p-id="8583" xmlns:xlink="http://www.w3.org/1999/xlink" width="200" height="200"><defs><style type="text/css"></style></defs><path d="M850.2 411.9s74.7 32.5 69.5 200.2l54 52.9s57.2-129.8 36.4-241c0 0-1.8-104.3-191.2-242.7 0 0-93.9 10.2-86.9-85.5l-74.8-73.6-135.7 133.2 66.2 65.1S751 227.2 693.8 359l-245 242.8-47-6.8-279.9 275.2s-19.2 66.8 29.6 107.7c0 0 31.3 37.8 97.3 36l274.7-280.4 5.2-46.3 280-273.7c0 0.2 15.6-23.7 41.5-1.6z m-530.1 30.7l88.7 87.4 119.9-118.1-92.1-90.6C534 102.4 254 17 254 17c-52.2-13.8-41.7 25.6-41.7 25.6 109.6 88.9 92.1 118 92.1 118-14 102.7-104.3 142.1-104.3 142.1C109.7 340.1 35 215.4 35 215.4c-29.6-5.1-26.2 27.3-26.2 27.3 73.1 316.4 311.3 199.9 311.3 199.9z m676.7 426.7L721.6 608.6 600 728.2l260.9 273s7.4 7.8 15.5 7.8c8 0 12.9-4.6 12.9-4.6L999 896.5s4.4-3.6 4.4-12.7-6.6-14.5-6.6-14.5z m-67.5 1l-15.1 45.9c-2.2 5.5-7.5 9.3-13.4 9.6h-49.1c-6-0.2-11.2-4.1-13.4-9.6l-15-45.9c-1.7-5.6 0.4-11.7 5.2-15.5l39.7-28.2c4.9-3.4 11.5-3.4 16.6 0l39.7 28.2c4.6 3.7 6.5 9.9 4.8 15.5z" fill="#cdcdcd" p-id="8584"></path></svg>