<?xml version="1.0" standalone="no"?><!DOCTYPE svg PUBLIC "-//W3C//DTD SVG 1.1//EN"
  "http://www.w3.org/Graphics/SVG/1.1/DTD/svg11.dtd">
<svg t="1591084964556" class="icon" viewBox="0 0 1024 1024" version="1.1" xmlns="http://www.w3.org/2000/svg" p-id="2674"
     xmlns:xlink="http://www.w3.org/1999/xlink" width="128" height="128">
  <defs>
    <style type="text/css"/>
  </defs>
  <path
    d="M499.3 766c30.9 0 56-25.1 56-56s-25.1-56-56-56-56 25.1-56 56 25.1 56 56 56zM279.4 766c30.9 0 56-25.1 56-56s-25.1-56-56-56-56 25.1-56 56 25.1 56 56 56zM724.7 590.1c30.9 0 56-25.1 56-56 0-31-25.1-56-56-56s-56 25.1-56 56 25.1 56 56 56zM499.3 590.1c30.9 0 56-25.1 56-56 0-31-25.1-56-56-56s-56 25.1-56 56 25.1 56 56 56zM279.4 590.1c30.9 0 56-25.1 56-56 0-31-25.1-56-56-56s-56 25.1-56 56 25.1 56 56 56z"
    p-id="2675"/>
  <path
    d="M870.4 142.7H757.9v-11.2c0-18.5-15.1-33.6-33.6-33.6s-33.6 15.1-33.6 33.6v11.2H334.6v-11.2c0-18.5-15.1-33.6-33.6-33.6s-33.6 15.1-33.6 33.6v11.2H153.6c-49.5 0-89.6 40.1-89.6 89.6v604.8c0 49.5 40.1 89.6 89.6 89.6h716.8c49.5 0 89.6-40.1 89.6-89.6V232.3c0-49.4-40.1-89.6-89.6-89.6z m44 690.3c0 24.7-20.1 44.8-44.8 44.8H152.8c-24.7 0-44.8-20.1-44.8-44.8V362.6h806.4V833z m0.8-511.1H108.8v-89.6c0-24.7 20.1-44.8 44.8-44.8h113.8v11.2c0 18.5 15.1 33.6 33.6 33.6s33.6-15.1 33.6-33.6v-11.2h356.1v11.2c0 18.5 15.1 33.6 33.6 33.6s33.6-15.1 33.6-33.6v-11.2h112.5c24.7 0 44.8 20.1 44.8 44.8v89.6z"
    p-id="2676"/>
</svg>
