<svg t="1590808263848" class="icon" viewBox="0 0 1024 1024" version="1.1" xmlns="http://www.w3.org/2000/svg" p-id="1216" width="128" height="128"><path d="M153.6 102.4h614.4v307.2h102.4V102.4a102.4 102.4 0 0 0-102.4-102.4H153.6a102.4 102.4 0 0 0-102.4 102.4v716.8a102.4 102.4 0 0 0 102.4 102.4h307.2v-102.4H153.6z" p-id="1217"></path><path d="M256 307.2h409.6a51.2 51.2 0 0 0 0-102.4H256a51.2 51.2 0 0 0 0 102.4zM256 512h307.2a51.2 51.2 0 0 0 0-102.4H256a51.2 51.2 0 0 0 0 102.4zM460.8 614.4H256a51.2 51.2 0 0 0 0 102.4h204.8a51.2 51.2 0 0 0 0-102.4zM921.6 921.6h-307.2a51.2 51.2 0 0 0 0 102.4h307.2a51.2 51.2 0 0 0 0-102.4zM819.2 651.264A102.4 102.4 0 0 0 870.4 563.2a102.4 102.4 0 0 0-204.8 0 102.4 102.4 0 0 0 51.2 88.064V716.8h-76.8a76.8 76.8 0 0 0 0 153.6h256a76.8 76.8 0 0 0 0-153.6H819.2z" p-id="1218"></path></svg>
