<?xml version="1.0" standalone="no"?><!DOCTYPE svg PUBLIC "-//W3C//DTD SVG 1.1//EN" "http://www.w3.org/Graphics/SVG/1.1/DTD/svg11.dtd"><svg t="1592215197438" class="icon" viewBox="0 0 1024 1024" version="1.1" xmlns="http://www.w3.org/2000/svg" p-id="7565" xmlns:xlink="http://www.w3.org/1999/xlink" width="200" height="200"><defs><style type="text/css"></style></defs><path d="M895.99853 300.657277H127.99981a35.83994 35.83994 0 0 0-36.124384 35.555496 19.34219 19.34219 0 0 0 0 2.559996l45.511035 635.44783A54.044354 54.044354 0 0 0 191.430816 1023.998293h640.852265a53.75991 53.75991 0 0 0 54.044354-49.777694l44.657704-635.44783A35.83994 35.83994 0 0 0 895.99853 300.657277z m-183.181917 195.413007L691.76776 796.443117a46.079923 46.079923 0 0 1-47.502143 42.666596 42.666596 42.666596 0 0 1-41.813264-43.519928 8.533319 8.533319 0 0 1 0-1.706664l19.911078-299.803944a46.079923 46.079923 0 0 1 47.502143-42.666596 42.666596 42.666596 0 0 1 41.813264 43.519927 8.533319 8.533319 0 0 1 0 1.706664z m-308.337263-2.844439l17.351082 300.088388a42.666596 42.666596 0 0 1-40.391044 44.942148h-1.706664A45.511035 45.511035 0 0 1 331.661693 796.443117l-17.351082-299.803945A42.666596 42.666596 0 0 1 355.554987 450.843693a45.511035 45.511035 0 0 1 46.933255 42.382152z m310.043927-373.474933L977.349506 170.666382A39.822156 39.822156 0 0 1 1009.776119 208.212986a32.711057 32.711057 0 0 1-32.995501 32.142169H47.217723A32.711057 32.711057 0 0 1 14.222222 208.212986 39.537712 39.537712 0 0 1 46.648835 170.666382l262.826228-49.777695a28.444397 28.444397 0 0 0 23.893294-22.471073L350.150551 28.444397a36.124384 36.124384 0 0 1 35.271053-28.444397h252.870689a36.124384 36.124384 0 0 1 35.271053 28.444397l17.351082 70.257661a28.444397 28.444397 0 0 0 23.893293 22.186629z" p-id="7566" fill="#cdcdcd"></path></svg>