<svg t="1590808965806" class="icon" viewBox="0 0 1024 1024" version="1.1" xmlns="http://www.w3.org/2000/svg" p-id="3057"
     width="128" height="128">
  <path
    d="M435.2 116.224a51.2 51.2 0 0 1 51.2 51.2v250.88a48.810667 48.810667 0 0 1-14.848 35.84 49.493333 49.493333 0 0 1-35.84 15.018667H183.808a51.2 51.2 0 0 1-51.2-51.2V167.082667a48.810667 48.810667 0 0 1 14.848-35.84 48.298667 48.298667 0 0 1 35.84-15.018667z m403.456 0a47.274667 47.274667 0 0 1 35.498667 15.018667 49.152 49.152 0 0 1 14.506666 35.84v251.221333a49.152 49.152 0 0 1-14.506666 35.84 47.957333 47.957333 0 0 1-35.498667 15.018667H586.581333a51.2 51.2 0 0 1-51.2-51.2V167.082667a48.810667 48.810667 0 0 1 14.848-35.84 48.298667 48.298667 0 0 1 35.84-15.018667zM435.2 518.997333a51.2 51.2 0 0 1 51.2 51.2v251.733334a47.786667 47.786667 0 0 1-14.848 35.498666 51.2 51.2 0 0 1-35.84 14.506667H183.808a49.834667 49.834667 0 0 1-35.84-14.506667 47.786667 47.786667 0 0 1-14.848-35.498666V569.856a48.810667 48.810667 0 0 1 14.848-35.84 48.298667 48.298667 0 0 1 35.84-15.018667z m403.456 0a47.274667 47.274667 0 0 1 35.498667 15.018667 49.152 49.152 0 0 1 14.506666 35.84v252.074667a48.128 48.128 0 0 1-14.506666 35.498666 48.810667 48.810667 0 0 1-35.498667 14.506667H586.581333a49.834667 49.834667 0 0 1-35.84-14.506667 47.786667 47.786667 0 0 1-14.848-35.498666V569.856a48.810667 48.810667 0 0 1 14.848-35.84 48.298667 48.298667 0 0 1 35.84-15.018667z"
    p-id="3058"/>
</svg>
